<?xml version="1.0" encoding="utf-8"?>
<!-- Generator: Adobe Illustrator 16.0.3, SVG Export Plug-In . SVG Version: 6.00 Build 0)  -->
<!DOCTYPE svg PUBLIC "-//W3C//DTD SVG 1.1//EN" "http://www.w3.org/Graphics/SVG/1.1/DTD/svg11.dtd">
<svg version="1.1"
	 id="svg6890" sodipodi:docname="mum.svg" inkscape:version="0.47 r22583" xmlns:dc="http://purl.org/dc/elements/1.1/" xmlns:cc="http://creativecommons.org/ns#" xmlns:rdf="http://www.w3.org/1999/02/22-rdf-syntax-ns#" xmlns:svg="http://www.w3.org/2000/svg" xmlns:sodipodi="http://sodipodi.sourceforge.net/DTD/sodipodi-0.dtd" xmlns:inkscape="http://www.inkscape.org/namespaces/inkscape"
	 xmlns="http://www.w3.org/2000/svg" xmlns:xlink="http://www.w3.org/1999/xlink" x="0px" y="0px" width="211.744px"
	 height="946.742px" viewBox="0 0 211.744 946.742" enable-background="new 0 0 211.744 946.742" xml:space="preserve">
<defs>
	
</defs>
<sodipodi:namedview  inkscape:window-maximized="1" inkscape:window-y="-4" inkscape:window-x="-4" inkscape:window-height="744" inkscape:window-width="1280" inkscape:current-layer="layer1" inkscape:pageshadow="2" inkscape:pageopacity="0.0" inkscape:document-units="mm" showgrid="false" inkscape:cy="473.37094" inkscape:cx="105.8724" inkscape:zoom="0.5270708" borderopacity="1.0" bordercolor="#666666" pagecolor="#ffffff" id="base">
	</sodipodi:namedview>
<g id="layer1" transform="translate(-247.72342,-86.042619)" inkscape:groupmode="layer" inkscape:label="Layer 1">
	<g>
		<g>
			<g id="g6980_15_">
				<path id="path6916_15_" sodipodi:nodetypes="czccccscccscccccz" d="M340.784,391.372c7.265,6.091,18.474-0.648,18.731-8.813
					c0.259-8.165-2.927-8.693-3.991-13.11c-0.951-3.715-1.214-7.777-0.793-11.872c0.686-7.954,4.504-16.345,8.782-24.893l0,0
					c4.095-7.961,9.01-16.348,11.77-25.583c1.254-4.194,1.932-8.615,1.642-12.957c-0.323-4.613-1.79-8.966-3.994-12.759
					c1.342,4.177,1.782,8.559,1.166,12.664c-0.567,3.883-2.033,7.545-3.902,10.965c-4.17,7.66-10.301,14.096-16.229,21.399l0,0
					c-6.336,7.614-12.591,16.172-16.438,27.016l0,0c-1.946,5.724-2.964,11.877-2.861,18.207
					C334.841,379.041,333.52,385.28,340.784,391.372L340.784,391.372z"/>
				<path id="path6922_15_" sodipodi:nodetypes="czscccccccccsscscscsssccccccsscccz" d="M318.861,378.533
					c9.386,4.151,17.785-9.171,11.834-16.984c-5.952-7.813-8.419-9.352-13.85-14.246c-4.335-3.915-8.144-8.211-10.887-12.941l0,0
					c-4.838-7.907-6.552-18.171-5.567-28.268l0,0c1.102-11.479,5.511-23.09,10.803-34.633l0,0
					c6.014-12.965,13.385-25.574,20.854-38.315c7.555-12.865,15.311-25.836,22.11-39.408c6.161-12.242,11.641-25.195,14.255-38.897
					l0,0c1.173-6.17,1.69-12.505,1.248-18.799l0,0c-0.439-6.19-1.856-12.289-4.248-17.958l0,0
					c-2.618-6.189-6.347-11.798-10.738-16.726c-5.316-5.964-11.54-10.974-18.13-15.316c6.244,4.825,12.027,10.256,16.756,16.451
					c3.902,5.113,7.064,10.761,9.071,16.747c1.842,5.476,2.715,11.239,2.691,16.963c-0.02,5.834-0.959,11.651-2.474,17.316l0,0
					c-3.369,12.645-9.524,24.431-16.345,35.884c-7.56,12.638-16.115,24.748-24.647,37.069
					c-8.427,12.146-16.935,24.497-24.404,37.805l0,0c-6.661,11.75-12.563,24.661-15.296,39.08l0,0
					c-2.497,13.418-1.106,27.869,5.152,40.985l0,0c3.609,7.307,8.387,13.788,13.799,19.373
					C307.54,370.636,309.475,374.382,318.861,378.533L318.861,378.533z"/>
				<path id="path6926_15_" sodipodi:nodetypes="cccccccccccc" d="M363.448,371.031c-3.421,8.333,8.776,17.403,16.488,11.746
					c15.938-12.825,29.766-28.553,41.086-45.569c19.421-33.922,17.565-72.408,11.016-109.608
					c-4.537-22.968-11.45-45.495-21.198-66.791c-8.996-19.098-24.609-33.761-40.107-47.636c-10.873-9.62-22.082-18.953-34.11-27.026
					c11.414,8.921,21.836,18.971,31.947,29.302c14.363,14.356,27.198,29.551,35.295,48.346c8.102,21.14,12.677,43.405,15.755,65.774
					c3.889,33.193,2.981,67.504-15.461,96.428C392.938,343.12,373.297,353.014,363.448,371.031z"/>
			</g>
			<path id="path6950_15_" d="M286.016,405.064c0.023-0.322,1.167-0.593,3.372-0.599c1.103-0.003,2.471,0.066,4.082,0.288
				c1.611,0.221,3.468,0.592,5.522,1.242l0,0c3.103,0.984,6.652,2.637,10.084,5.461c2.65,2.193,5.153,5.055,7.206,8.52
				c1.888,3.188,3.416,6.833,4.538,10.768c1.098,3.859,1.874,7.997,2.345,12.343c0.47,4.347,0.633,8.902,0.582,13.566
				c-0.078,9.078-0.956,18.757-2.241,28.831l0,0c-1.162,9.134-2.668,18.621-4.098,28.41c-1.167,8.031-2.35,16.191-2.738,24.449
				c-0.149,3.22-0.188,6.388,0.087,9.462l0,0c0.24,2.464,0.583,4.765,1.341,6.724c0.618,1.499,1.294,2.801,2.176,3.475
				c0.548,0.542,1.395,0.926,2.354,1.17c0.291,0.073,0.592,0.135,0.897,0.183c1.464,0.12,2.803,0.076,3.563-0.433l0,0
				c0.854-0.338,1.666-1.378,2.456-2.606c1.021-1.686,1.646-3.843,2.211-6.201c0.685-3.01,1.033-6.175,1.273-9.412
				c0.62-8.484,0.327-16.958-0.002-25.275c-0.414-10.294-1.022-20.235-1.4-29.718l0,0c-0.422-10.534-0.582-20.531-0.123-29.768
				c0.224-4.683,0.597-9.227,1.228-13.529s1.518-8.366,2.674-12.124c1.123-3.656,2.593-7.057,4.417-9.998
				c1.855-3.002,4.168-5.476,6.666-7.243c3.102-2.166,6.311-3.125,9.047-3.459l0,0c1.853-0.22,3.478-0.185,4.861-0.053
				s2.527,0.362,3.434,0.603c1.811,0.479,2.676,0.972,2.623,1.264c-0.054,0.291-1.03,0.376-2.811,0.468
				c-0.89,0.046-1.98,0.099-3.24,0.236s-2.688,0.358-4.222,0.799l0,0c-2.235,0.635-4.741,1.763-6.93,3.702
				c-1.807,1.572-3.424,3.738-4.767,6.343c-1.326,2.584-2.338,5.608-3.137,8.967c-0.826,3.479-1.396,7.252-1.744,11.301
				s-0.472,8.374-0.497,12.93c-0.029,8.927,0.507,18.65,1.24,29.081l0,0c0.662,9.367,1.515,19.289,2.133,29.728
				c0.504,8.383,0.921,17.207,0.363,26.4c-0.209,3.518-0.598,7.172-1.398,10.896c-0.594,2.894-1.562,5.987-3.255,9.026
				c-1.346,2.49-3.488,4.827-6.471,6.495l0,0c-3.183,1.553-6.503,1.958-9.49,1.496c-0.701-0.083-1.403-0.214-2.099-0.395
				c-2.29-0.593-4.505-1.711-6.455-3.365c-2.449-2.255-4.04-4.908-4.941-7.533c-1.147-3.213-1.666-6.381-1.882-9.341l0,0
				c-0.296-3.725-0.237-7.34-0.031-10.815c0.518-8.889,1.844-17.34,3.169-25.388c1.616-9.866,3.33-19.26,4.726-28.194l0,0
				c1.538-9.88,2.727-19.174,3.166-27.817c0.215-4.458,0.273-8.725,0.062-12.747s-0.692-7.801-1.475-11.311
				c-0.789-3.551-1.868-6.789-3.268-9.607c-1.51-3.044-3.377-5.625-5.41-7.662c-2.613-2.635-5.519-4.428-8.136-5.688l0,0
				c-1.741-0.839-3.371-1.448-4.812-1.931c-1.44-0.483-2.693-0.84-3.712-1.135C287.092,405.753,285.992,405.387,286.016,405.064
				L286.016,405.064z"/>
			<path id="path6954_15_" d="M443.68,392.388c0.593,0.007,1.159,2.756,1.482,7.822c0.162,2.533,0.257,5.645,0.26,9.271
				s-0.089,7.766-0.266,12.351c-0.341,8.905-1.053,19.511-1.835,31.367c-0.601,9.125-1.271,18.972-1.458,29.329
				c-0.124,7.667-0.137,15.503,1.161,23.163c0.905,5.51,2.458,11.117,4.295,16.85c0.277,0.867,0.561,1.733,0.847,2.598
				c2.14,6.432,4.535,12.779,6.687,19.153c1.857,5.412,3.656,11.111,4.385,17.111c0.305,2.369,0.35,4.972-0.12,7.68
				c-0.399,2.397-1.453,4.812-3.206,6.929c-1.116,1.327-2.539,2.646-4.316,3.764c-1.371,0.881-3.082,1.485-5.037,1.668
				c-3.915-0.025-6.88-1.574-8.702-3.565c-2.566-2.57-4.413-5.341-5.901-8.044c-1.489-2.703-2.619-5.341-3.673-7.724
				c-2.164-4.709-2.916-9.436-3.032-13.717c-0.072-2.455,0.021-4.761,0.164-6.93s0.339-4.2,0.513-6.106
				c0.207-2.378,0.391-4.569,0.475-6.582s0.069-3.846-0.049-5.511l0,0c-0.133-1.899-0.407-3.592-0.729-5.047s-0.69-2.676-1.011-3.67
				c-0.64-1.987-1.049-3.095-0.738-3.316c0.155-0.111,0.479,0.009,0.946,0.379c0.467,0.371,1.077,0.994,1.757,1.906
				c0.681,0.911,1.432,2.113,2.14,3.628c0.708,1.516,1.374,3.347,1.859,5.471l0,0c0.419,1.829,0.726,3.852,0.919,6.027
				c0.193,2.177,0.271,4.508,0.298,6.934c0.029,1.951,0.031,3.974,0.074,6.041c0.044,2.066,0.13,4.177,0.369,6.301
				c0.424,3.643,1.25,7.409,3.075,10.678c1.34,2.404,2.57,4.864,3.897,7.112c1.328,2.249,2.754,4.286,4.569,5.771
				c1.087,0.701,1.925,1.376,2.084,1.032c0.153,0.019,0.481-0.182,0.931-0.437c0.651-0.396,1.317-1.131,2.087-2.027
				c0.492-0.53,0.79-1.487,1.001-2.581c0.246-1.38,0.12-3.025-0.107-4.867c-0.632-4.763-2.371-9.733-4.229-15.098
				c-2.167-6.148-4.617-12.498-6.86-19.198c-0.301-0.895-0.598-1.795-0.891-2.703c-1.932-6.004-3.569-12.123-4.549-18.337
				c-1.342-8.771-1.216-17.194-0.854-25.031c0.471-10.693,1.515-20.666,2.568-29.791c1.368-11.878,2.795-22.366,3.96-31.141
				c0.6-4.524,1.145-8.588,1.621-12.142c0.477-3.555,0.886-6.601,1.25-9.084C442.518,395.107,443.088,392.381,443.68,392.388
				L443.68,392.388z"/>
			<path id="path6958_15_" d="M427.042,564.314c0.311,0.09,0.231,1.402-0.027,3.835s-0.65,5.996-1.058,10.638
				c-0.454,5.207-0.898,11.736-1.262,19.457c-0.324,6.885-0.6,14.695-0.779,23.324c-0.18,8.628-0.261,18.076-0.28,28.23
				c-0.034,18.898,0.217,40.21,0.743,63.193c0.438,19.142,1.065,39.432,1.886,60.439c0.105,2.697,0.213,5.384,0.322,8.057
				c0.972,23.714,2.106,46.408,3.337,67.447c1.292,22.101,2.689,42.357,4.135,60.045c0.762,9.294,1.509,17.867,2.284,25.615
				c0.774,7.748,1.573,14.672,2.339,20.678l0,0c0.826,6.479,1.632,11.848,2.367,16.026c0.418,2.37,0.807,4.342,1.137,5.917
				c0.31,1.471,0.558,2.582,0.699,3.352c0.143,0.771,0.165,1.202,0.004,1.281c-0.162,0.078-0.505-0.2-0.98-0.859
				c-0.475-0.658-1.071-1.706-1.714-3.114c-0.692-1.515-1.445-3.464-2.212-5.806c-1.352-4.125-2.763-9.515-4.144-15.971l0,0
				c-1.281-5.988-2.572-12.922-3.805-20.688c-1.233-7.765-2.406-16.363-3.547-25.657c-2.175-17.714-4.164-38.035-5.87-60.188
				c-1.624-21.095-2.995-43.866-4.014-67.659c-0.115-2.683-0.226-5.378-0.331-8.086c-0.823-21.081-1.304-41.457-1.469-60.679
				c-0.197-23.076,0.066-44.506,0.766-63.5c0.374-10.195,0.857-19.705,1.476-28.392c0.619-8.686,1.372-16.549,2.203-23.463
				c0.932-7.755,1.994-14.337,3.09-19.54c0.972-4.619,1.973-8.186,2.84-10.531C426.045,565.37,426.732,564.224,427.042,564.314
				L427.042,564.314z"/>
			<path id="path6962_15_" sodipodi:nodetypes="czccccccscccccczc" d="M409.386,360.837c0,0,2.826-0.098,6.311-0.119
				s10.003,0.504,14.709,2.012l0,0c8.909,2.818,16.177,10.066,15.121,19.876c-3.606,15.797-20.059,23.653-34.3,27.673l0,0
				c-13.101,3.171-27.451,4.602-40.574,0.642c-2.043-0.678-3.094-1.346-3.031-1.896c0.062-0.55,1.23-0.941,3.305-1.263
				c12.732-1.153,25.352-2.793,37.598-6.591l0,0c9.612-3.774,24.632-8.553,27.745-20.112c1.021-5.745-4.364-9.209-8.716-11.689l0,0
				c-3.94-2.138-8.284-4.331-11.931-5.686C411.977,362.331,409.386,360.837,409.386,360.837L409.386,360.837z"/>
			<path id="path6966_15_" sodipodi:nodetypes="czcccsssccczc" d="M297.352,362.87c-0.004,0.542-7.797,2.683-14.049,4.205
				c-6.252,1.522-12.113,2.986-21.493,9.583c-3.633,2.902-5.247,6.391-4.201,10.899c3.26,7.434,5.753,8.783,12.826,11.294
				c2.211,0.764,10.317,3.021,11.544,3.603s3.709,1.317,3.672,1.819c-0.038,0.502-2.591,0.741-3.942,1.083s-5.163-0.427-7.701-0.445
				c-10.76-1.768-18.957-3.855-25.006-13.893c-3.368-8.52,0.212-14.94,7.381-20.751c11.699-6.399,14.282-6.539,23.018-7.522
				C288.135,361.76,297.355,362.329,297.352,362.87L297.352,362.87z"/>
			<path id="path6970_15_" d="M251.154,396.349c0.052-0.052,0.177-0.039,0.354,0.084s0.4,0.372,0.603,0.691
				c0.268,0.408,0.553,0.982,0.829,1.684c0.532,1.343,1.076,3.229,1.604,5.561l0,0c0.521,2.297,1.054,5.061,1.566,8.264
				c0.512,3.202,1.001,6.845,1.498,10.878c0.983,7.985,1.94,17.576,2.861,28.559l0,0c0.908,10.845,1.783,23.059,2.614,36.451
				c1.621,26.117,3.081,56.738,4.311,90.483c1.172,32.138,2.138,67.12,2.82,103.766c0.052,2.791,0.103,5.592,0.151,8.402
				c0.586,33.762,0.882,66.215,0.913,96.452l0,0c0.036,34.597-0.276,66.302-0.921,93.752c-0.336,14.3-0.736,27.458-1.253,39.268
				c-0.516,11.809-1.145,22.27-1.832,31.184l0,0c-0.358,4.65-0.731,8.892-1.135,12.682c-0.404,3.79-0.839,7.131-1.28,9.99
				c-0.472,3.063-0.968,5.592-1.46,7.521c-0.278,1.094-0.559,2.002-0.822,2.709c-0.49,1.316-0.932,1.939-1.122,1.874
				c-0.19-0.064-0.143-0.771-0.04-2.132c0.055-0.727,0.123-1.638,0.195-2.738c0.129-1.941,0.263-4.447,0.388-7.512
				c0.115-2.859,0.23-6.188,0.323-9.963c0.094-3.775,0.163-7.998,0.229-12.646l0,0c0.126-8.902,0.225-19.334,0.25-31.112
				c0.024-11.779-0.027-24.905-0.098-39.194c-0.136-27.407-0.438-59.059-0.878-93.615l0,0c-0.385-30.201-0.871-62.615-1.456-96.344
				c-0.049-2.808-0.099-5.606-0.147-8.395c-0.648-36.611-1.352-71.56-2.076-103.675c-0.761-33.724-1.544-64.313-2.331-90.421
				c-0.403-13.387-0.807-25.59-1.21-36.431l0,0c-0.408-10.984-0.814-20.559-1.218-28.547c-0.206-4.05-0.392-7.68-0.594-10.875
				c-0.202-3.194-0.418-5.954-0.617-8.264l0,0c-0.205-2.356-0.397-4.202-0.589-5.569c-0.101-0.715-0.19-1.276-0.275-1.71
				c-0.08-0.354-0.119-0.599-0.155-0.773C251.12,396.512,251.103,396.401,251.154,396.349L251.154,396.349z"/>
			<path id="path6974_15_" d="M263.039,992.941c0.241-0.185,0.81,0.08,1.694,0.712c0.885,0.633,2.088,1.632,3.646,2.882
				c1.557,1.251,3.472,2.751,5.781,4.378c2.311,1.627,5.02,3.378,8.123,5.137c3.071,1.738,6.53,3.476,10.367,5.122
				s8.053,3.202,12.592,4.609l0,0c7.146,2.214,15.064,4.054,23.57,5.278c8.506,1.224,17.598,1.831,26.989,1.706
				c1.036-0.015,2.068-0.036,3.097-0.067c9.619-0.32,18.875-1.353,27.358-3.126c8.484-1.773,16.195-4.291,22.942-7.314
				c3.892-1.742,7.446-3.642,10.602-5.635s5.911-4.08,8.28-6.162c2.454-2.155,4.494-4.309,6.174-6.294
				c1.68-1.984,3.002-3.8,4.058-5.313c1.056-1.513,1.849-2.725,2.461-3.527c0.611-0.803,1.046-1.197,1.322-1.1
				c0.276,0.097,0.383,0.683,0.275,1.724c-0.106,1.04-0.431,2.536-1.081,4.405s-1.63,4.111-3.064,6.585
				c-1.434,2.474-3.326,5.18-5.765,7.908c-2.341,2.618-5.155,5.263-8.439,7.789c-3.284,2.525-7.039,4.933-11.18,7.101
				c-7.135,3.736-15.396,6.888-24.474,9.111s-18.969,3.518-29.146,3.839c-1.09,0.038-2.184,0.063-3.282,0.08
				c-9.954,0.144-19.622-0.645-28.639-2.204c-9.016-1.56-17.378-3.888-24.837-6.68l0,0c-4.753-1.777-9.148-3.769-13.108-5.883
				c-3.96-2.113-7.485-4.349-10.55-6.586c-3.104-2.262-5.73-4.541-7.876-6.676c-2.146-2.136-3.815-4.126-5.059-5.828
				s-2.063-3.116-2.521-4.138C262.895,993.754,262.798,993.126,263.039,992.941L263.039,992.941z"/>
		</g>
	</g>
	<defs>
		<filter id="Adobe_OpacityMaskFilter" filterUnits="userSpaceOnUse" x="247.724" y="86.043" width="211.745" height="946.742">
			
				<feColorMatrix  type="matrix" values="-1 0 0 0 1  0 -1 0 0 1  0 0 -1 0 1  0 0 0 1 0" color-interpolation-filters="sRGB" result="source"/>
		</filter>
	</defs>
	<mask maskUnits="userSpaceOnUse" x="247.724" y="86.043" width="211.745" height="946.742" id="SVGID_1_">
		<g filter="url(#Adobe_OpacityMaskFilter)">
			
				<image overflow="visible" width="217" height="951" xlink:href="CD8B11EDC805E7F3.jpg"  transform="matrix(1 0 0 1 245.0957 83.9137)">
			</image>
		</g>
	</mask>
	<g opacity="0.75" mask="url(#SVGID_1_)">
		<g>
			<g id="g6980_12_">
				<path id="path6916_12_" sodipodi:nodetypes="czccccscccscccccz" fill="#FFFFFF" d="M340.784,391.372
					c7.265,6.091,18.474-0.648,18.731-8.813c0.259-8.165-2.927-8.693-3.991-13.11c-0.951-3.715-1.214-7.777-0.793-11.872
					c0.686-7.954,4.504-16.345,8.782-24.893l0,0c4.095-7.961,9.01-16.348,11.77-25.583c1.254-4.194,1.932-8.615,1.642-12.957
					c-0.323-4.613-1.79-8.966-3.994-12.759c1.342,4.177,1.782,8.559,1.166,12.664c-0.567,3.883-2.033,7.545-3.902,10.965
					c-4.17,7.66-10.301,14.096-16.229,21.399l0,0c-6.336,7.614-12.591,16.172-16.438,27.016l0,0
					c-1.946,5.724-2.964,11.877-2.861,18.207C334.841,379.041,333.52,385.28,340.784,391.372L340.784,391.372z"/>
				<path id="path6922_12_" sodipodi:nodetypes="czscccccccccsscscscsssccccccsscccz" fill="#FFFFFF" d="M318.861,378.533
					c9.386,4.151,17.785-9.171,11.834-16.984c-5.952-7.813-8.419-9.352-13.85-14.246c-4.335-3.915-8.144-8.211-10.887-12.941l0,0
					c-4.838-7.907-6.552-18.171-5.567-28.268l0,0c1.102-11.479,5.511-23.09,10.803-34.633l0,0
					c6.014-12.965,13.385-25.574,20.854-38.315c7.555-12.865,15.311-25.836,22.11-39.408c6.161-12.242,11.641-25.195,14.255-38.897
					l0,0c1.173-6.17,1.69-12.505,1.248-18.799l0,0c-0.439-6.19-1.856-12.289-4.248-17.958l0,0
					c-2.618-6.189-6.347-11.798-10.738-16.726c-5.316-5.964-11.54-10.974-18.13-15.316c6.244,4.825,12.027,10.256,16.756,16.451
					c3.902,5.113,7.064,10.761,9.071,16.747c1.842,5.476,2.715,11.239,2.691,16.963c-0.02,5.834-0.959,11.651-2.474,17.316l0,0
					c-3.369,12.645-9.524,24.431-16.345,35.884c-7.56,12.638-16.115,24.748-24.647,37.069
					c-8.427,12.146-16.935,24.497-24.404,37.805l0,0c-6.661,11.75-12.563,24.661-15.296,39.08l0,0
					c-2.497,13.418-1.106,27.869,5.152,40.985l0,0c3.609,7.307,8.387,13.788,13.799,19.373
					C307.54,370.636,309.475,374.382,318.861,378.533L318.861,378.533z"/>
				<path id="path6926_12_" sodipodi:nodetypes="cccccccccccc" fill="#FFFFFF" d="M363.448,371.031
					c-3.421,8.333,8.776,17.403,16.488,11.746c15.938-12.825,29.766-28.553,41.086-45.569
					c19.421-33.922,17.565-72.408,11.016-109.608c-4.537-22.968-11.45-45.495-21.198-66.791
					c-8.996-19.098-24.609-33.761-40.107-47.636c-10.873-9.62-22.082-18.953-34.11-27.026c11.414,8.921,21.836,18.971,31.947,29.302
					c14.363,14.356,27.198,29.551,35.295,48.346c8.102,21.14,12.677,43.405,15.755,65.774c3.889,33.193,2.981,67.504-15.461,96.428
					C392.938,343.12,373.297,353.014,363.448,371.031z"/>
			</g>
			<path id="path6950_12_" fill="#FFFFFF" d="M286.016,405.064c0.023-0.322,1.167-0.593,3.372-0.599
				c1.103-0.003,2.471,0.066,4.082,0.288c1.611,0.221,3.468,0.592,5.522,1.242l0,0c3.103,0.984,6.652,2.637,10.084,5.461
				c2.65,2.193,5.153,5.055,7.206,8.52c1.888,3.188,3.416,6.833,4.538,10.768c1.098,3.859,1.874,7.997,2.345,12.343
				c0.47,4.347,0.633,8.902,0.582,13.566c-0.078,9.078-0.956,18.757-2.241,28.831l0,0c-1.162,9.134-2.668,18.621-4.098,28.41
				c-1.167,8.031-2.35,16.191-2.738,24.449c-0.149,3.22-0.188,6.388,0.087,9.462l0,0c0.24,2.464,0.583,4.765,1.341,6.724
				c0.618,1.499,1.294,2.801,2.176,3.475c0.548,0.542,1.395,0.926,2.354,1.17c0.291,0.073,0.592,0.135,0.897,0.183
				c1.464,0.12,2.803,0.076,3.563-0.433l0,0c0.854-0.338,1.666-1.378,2.456-2.606c1.021-1.686,1.646-3.843,2.211-6.201
				c0.685-3.01,1.033-6.175,1.273-9.412c0.62-8.484,0.327-16.958-0.002-25.275c-0.414-10.294-1.022-20.235-1.4-29.718l0,0
				c-0.422-10.534-0.582-20.531-0.123-29.768c0.224-4.683,0.597-9.227,1.228-13.529s1.518-8.366,2.674-12.124
				c1.123-3.656,2.593-7.057,4.417-9.998c1.855-3.002,4.168-5.476,6.666-7.243c3.102-2.166,6.311-3.125,9.047-3.459l0,0
				c1.853-0.22,3.478-0.185,4.861-0.053s2.527,0.362,3.434,0.603c1.811,0.479,2.676,0.972,2.623,1.264
				c-0.054,0.291-1.03,0.376-2.811,0.468c-0.89,0.046-1.98,0.099-3.24,0.236s-2.688,0.358-4.222,0.799l0,0
				c-2.235,0.635-4.741,1.763-6.93,3.702c-1.807,1.572-3.424,3.738-4.767,6.343c-1.326,2.584-2.338,5.608-3.137,8.967
				c-0.826,3.479-1.396,7.252-1.744,11.301s-0.472,8.374-0.497,12.93c-0.029,8.927,0.507,18.65,1.24,29.081l0,0
				c0.662,9.367,1.515,19.289,2.133,29.728c0.504,8.383,0.921,17.207,0.363,26.4c-0.209,3.518-0.598,7.172-1.398,10.896
				c-0.594,2.894-1.562,5.987-3.255,9.026c-1.346,2.49-3.488,4.827-6.471,6.495l0,0c-3.183,1.553-6.503,1.958-9.49,1.496
				c-0.701-0.083-1.403-0.214-2.099-0.395c-2.29-0.593-4.505-1.711-6.455-3.365c-2.449-2.255-4.04-4.908-4.941-7.533
				c-1.147-3.213-1.666-6.381-1.882-9.341l0,0c-0.296-3.725-0.237-7.34-0.031-10.815c0.518-8.889,1.844-17.34,3.169-25.388
				c1.616-9.866,3.33-19.26,4.726-28.194l0,0c1.538-9.88,2.727-19.174,3.166-27.817c0.215-4.458,0.273-8.725,0.062-12.747
				s-0.692-7.801-1.475-11.311c-0.789-3.551-1.868-6.789-3.268-9.607c-1.51-3.044-3.377-5.625-5.41-7.662
				c-2.613-2.635-5.519-4.428-8.136-5.688l0,0c-1.741-0.839-3.371-1.448-4.812-1.931c-1.44-0.483-2.693-0.84-3.712-1.135
				C287.092,405.753,285.992,405.387,286.016,405.064L286.016,405.064z"/>
			<path id="path6954_12_" fill="#FFFFFF" d="M443.68,392.388c0.593,0.007,1.159,2.756,1.482,7.822
				c0.162,2.533,0.257,5.645,0.26,9.271s-0.089,7.766-0.266,12.351c-0.341,8.905-1.053,19.511-1.835,31.367
				c-0.601,9.125-1.271,18.972-1.458,29.329c-0.124,7.667-0.137,15.503,1.161,23.163c0.905,5.51,2.458,11.117,4.295,16.85
				c0.277,0.867,0.561,1.733,0.847,2.598c2.14,6.432,4.535,12.779,6.687,19.153c1.857,5.412,3.656,11.111,4.385,17.111
				c0.305,2.369,0.35,4.972-0.12,7.68c-0.399,2.397-1.453,4.812-3.206,6.929c-1.116,1.327-2.539,2.646-4.316,3.764
				c-1.371,0.881-3.082,1.485-5.037,1.668c-3.915-0.025-6.88-1.574-8.702-3.565c-2.566-2.57-4.413-5.341-5.901-8.044
				c-1.489-2.703-2.619-5.341-3.673-7.724c-2.164-4.709-2.916-9.436-3.032-13.717c-0.072-2.455,0.021-4.761,0.164-6.93
				s0.339-4.2,0.513-6.106c0.207-2.378,0.391-4.569,0.475-6.582s0.069-3.846-0.049-5.511l0,0c-0.133-1.899-0.407-3.592-0.729-5.047
				s-0.69-2.676-1.011-3.67c-0.64-1.987-1.049-3.095-0.738-3.316c0.155-0.111,0.479,0.009,0.946,0.379
				c0.467,0.371,1.077,0.994,1.757,1.906c0.681,0.911,1.432,2.113,2.14,3.628c0.708,1.516,1.374,3.347,1.859,5.471l0,0
				c0.419,1.829,0.726,3.852,0.919,6.027c0.193,2.177,0.271,4.508,0.298,6.934c0.029,1.951,0.031,3.974,0.074,6.041
				c0.044,2.066,0.13,4.177,0.369,6.301c0.424,3.643,1.25,7.409,3.075,10.678c1.34,2.404,2.57,4.864,3.897,7.112
				c1.328,2.249,2.754,4.286,4.569,5.771c1.087,0.701,1.925,1.376,2.084,1.032c0.153,0.019,0.481-0.182,0.931-0.437
				c0.651-0.396,1.317-1.131,2.087-2.027c0.492-0.53,0.79-1.487,1.001-2.581c0.246-1.38,0.12-3.025-0.107-4.867
				c-0.632-4.763-2.371-9.733-4.229-15.098c-2.167-6.148-4.617-12.498-6.86-19.198c-0.301-0.895-0.598-1.795-0.891-2.703
				c-1.932-6.004-3.569-12.123-4.549-18.337c-1.342-8.771-1.216-17.194-0.854-25.031c0.471-10.693,1.515-20.666,2.568-29.791
				c1.368-11.878,2.795-22.366,3.96-31.141c0.6-4.524,1.145-8.588,1.621-12.142c0.477-3.555,0.886-6.601,1.25-9.084
				C442.518,395.107,443.088,392.381,443.68,392.388L443.68,392.388z"/>
			<path id="path6958_12_" fill="#FFFFFF" d="M427.042,564.314c0.311,0.09,0.231,1.402-0.027,3.835s-0.65,5.996-1.058,10.638
				c-0.454,5.207-0.898,11.736-1.262,19.457c-0.324,6.885-0.6,14.695-0.779,23.324c-0.18,8.628-0.261,18.076-0.28,28.23
				c-0.034,18.898,0.217,40.21,0.743,63.193c0.438,19.142,1.065,39.432,1.886,60.439c0.105,2.697,0.213,5.384,0.322,8.057
				c0.972,23.714,2.106,46.408,3.337,67.447c1.292,22.101,2.689,42.357,4.135,60.045c0.762,9.294,1.509,17.867,2.284,25.615
				c0.774,7.748,1.573,14.672,2.339,20.678l0,0c0.826,6.479,1.632,11.848,2.367,16.026c0.418,2.37,0.807,4.342,1.137,5.917
				c0.31,1.471,0.558,2.582,0.699,3.352c0.143,0.771,0.165,1.202,0.004,1.281c-0.162,0.078-0.505-0.2-0.98-0.859
				c-0.475-0.658-1.071-1.706-1.714-3.114c-0.692-1.515-1.445-3.464-2.212-5.806c-1.352-4.125-2.763-9.515-4.144-15.971l0,0
				c-1.281-5.988-2.572-12.922-3.805-20.688c-1.233-7.765-2.406-16.363-3.547-25.657c-2.175-17.714-4.164-38.035-5.87-60.188
				c-1.624-21.095-2.995-43.866-4.014-67.659c-0.115-2.683-0.226-5.378-0.331-8.086c-0.823-21.081-1.304-41.457-1.469-60.679
				c-0.197-23.076,0.066-44.506,0.766-63.5c0.374-10.195,0.857-19.705,1.476-28.392c0.619-8.686,1.372-16.549,2.203-23.463
				c0.932-7.755,1.994-14.337,3.09-19.54c0.972-4.619,1.973-8.186,2.84-10.531C426.045,565.37,426.732,564.224,427.042,564.314
				L427.042,564.314z"/>
			<path id="path6962_12_" sodipodi:nodetypes="czccccccscccccczc" fill="#FFFFFF" d="M409.386,360.837c0,0,2.826-0.098,6.311-0.119
				s10.003,0.504,14.709,2.012l0,0c8.909,2.818,16.177,10.066,15.121,19.876c-3.606,15.797-20.059,23.653-34.3,27.673l0,0
				c-13.101,3.171-27.451,4.602-40.574,0.642c-2.043-0.678-3.094-1.346-3.031-1.896c0.062-0.55,1.23-0.941,3.305-1.263
				c12.732-1.153,25.352-2.793,37.598-6.591l0,0c9.612-3.774,24.632-8.553,27.745-20.112c1.021-5.745-4.364-9.209-8.716-11.689l0,0
				c-3.94-2.138-8.284-4.331-11.931-5.686C411.977,362.331,409.386,360.837,409.386,360.837L409.386,360.837z"/>
			<path id="path6966_12_" sodipodi:nodetypes="czcccsssccczc" fill="#FFFFFF" d="M297.352,362.87
				c-0.004,0.542-7.797,2.683-14.049,4.205c-6.252,1.522-12.113,2.986-21.493,9.583c-3.633,2.902-5.247,6.391-4.201,10.899
				c3.26,7.434,5.753,8.783,12.826,11.294c2.211,0.764,10.317,3.021,11.544,3.603s3.709,1.317,3.672,1.819
				c-0.038,0.502-2.591,0.741-3.942,1.083s-5.163-0.427-7.701-0.445c-10.76-1.768-18.957-3.855-25.006-13.893
				c-3.368-8.52,0.212-14.94,7.381-20.751c11.699-6.399,14.282-6.539,23.018-7.522C288.135,361.76,297.355,362.329,297.352,362.87
				L297.352,362.87z"/>
			<path id="path6970_12_" fill="#FFFFFF" d="M251.154,396.349c0.052-0.052,0.177-0.039,0.354,0.084s0.4,0.372,0.603,0.691
				c0.268,0.408,0.553,0.982,0.829,1.684c0.532,1.343,1.076,3.229,1.604,5.561l0,0c0.521,2.297,1.054,5.061,1.566,8.264
				c0.512,3.202,1.001,6.845,1.498,10.878c0.983,7.985,1.94,17.576,2.861,28.559l0,0c0.908,10.845,1.783,23.059,2.614,36.451
				c1.621,26.117,3.081,56.738,4.311,90.483c1.172,32.138,2.138,67.12,2.82,103.766c0.052,2.791,0.103,5.592,0.151,8.402
				c0.586,33.762,0.882,66.215,0.913,96.452l0,0c0.036,34.597-0.276,66.302-0.921,93.752c-0.336,14.3-0.736,27.458-1.253,39.268
				c-0.516,11.809-1.145,22.27-1.832,31.184l0,0c-0.358,4.65-0.731,8.892-1.135,12.682c-0.404,3.79-0.839,7.131-1.28,9.99
				c-0.472,3.063-0.968,5.592-1.46,7.521c-0.278,1.094-0.559,2.002-0.822,2.709c-0.49,1.316-0.932,1.939-1.122,1.874
				c-0.19-0.064-0.143-0.771-0.04-2.132c0.055-0.727,0.123-1.638,0.195-2.738c0.129-1.941,0.263-4.447,0.388-7.512
				c0.115-2.859,0.23-6.188,0.323-9.963c0.094-3.775,0.163-7.998,0.229-12.646l0,0c0.126-8.902,0.225-19.334,0.25-31.112
				c0.024-11.779-0.027-24.905-0.098-39.194c-0.136-27.407-0.438-59.059-0.878-93.615l0,0c-0.385-30.201-0.871-62.615-1.456-96.344
				c-0.049-2.808-0.099-5.606-0.147-8.395c-0.648-36.611-1.352-71.56-2.076-103.675c-0.761-33.724-1.544-64.313-2.331-90.421
				c-0.403-13.387-0.807-25.59-1.21-36.431l0,0c-0.408-10.984-0.814-20.559-1.218-28.547c-0.206-4.05-0.392-7.68-0.594-10.875
				c-0.202-3.194-0.418-5.954-0.617-8.264l0,0c-0.205-2.356-0.397-4.202-0.589-5.569c-0.101-0.715-0.19-1.276-0.275-1.71
				c-0.08-0.354-0.119-0.599-0.155-0.773C251.12,396.512,251.103,396.401,251.154,396.349L251.154,396.349z"/>
			<path id="path6974_12_" fill="#FFFFFF" d="M263.039,992.941c0.241-0.185,0.81,0.08,1.694,0.712
				c0.885,0.633,2.088,1.632,3.646,2.882c1.557,1.251,3.472,2.751,5.781,4.378c2.311,1.627,5.02,3.378,8.123,5.137
				c3.071,1.738,6.53,3.476,10.367,5.122s8.053,3.202,12.592,4.609l0,0c7.146,2.214,15.064,4.054,23.57,5.278
				c8.506,1.224,17.598,1.831,26.989,1.706c1.036-0.015,2.068-0.036,3.097-0.067c9.619-0.32,18.875-1.353,27.358-3.126
				c8.484-1.773,16.195-4.291,22.942-7.314c3.892-1.742,7.446-3.642,10.602-5.635s5.911-4.08,8.28-6.162
				c2.454-2.155,4.494-4.309,6.174-6.294c1.68-1.984,3.002-3.8,4.058-5.313c1.056-1.513,1.849-2.725,2.461-3.527
				c0.611-0.803,1.046-1.197,1.322-1.1c0.276,0.097,0.383,0.683,0.275,1.724c-0.106,1.04-0.431,2.536-1.081,4.405
				s-1.63,4.111-3.064,6.585c-1.434,2.474-3.326,5.18-5.765,7.908c-2.341,2.618-5.155,5.263-8.439,7.789
				c-3.284,2.525-7.039,4.933-11.18,7.101c-7.135,3.736-15.396,6.888-24.474,9.111s-18.969,3.518-29.146,3.839
				c-1.09,0.038-2.184,0.063-3.282,0.08c-9.954,0.144-19.622-0.645-28.639-2.204c-9.016-1.56-17.378-3.888-24.837-6.68l0,0
				c-4.753-1.777-9.148-3.769-13.108-5.883c-3.96-2.113-7.485-4.349-10.55-6.586c-3.104-2.262-5.73-4.541-7.876-6.676
				c-2.146-2.136-3.815-4.126-5.059-5.828s-2.063-3.116-2.521-4.138C262.895,993.754,262.798,993.126,263.039,992.941
				L263.039,992.941z"/>
		</g>
	</g>
</g>
</svg>
